<svg width="24" height="24" viewBox="0 0 24 24" fill="none" xmlns="http://www.w3.org/2000/svg">
<g clip-path="url(#clip0_10_1033)">
<path d="M20.4663 3.49618C15.7692 -1.1799 8.17148 -1.16112 3.49691 3.53448C-1.17992 8.23158 -1.16265 15.8293 3.53371 20.5038C8.23232 25.1799 15.8315 25.1626 20.5053 20.4655C25.1799 15.7684 25.1641 8.17 20.4663 3.49618Z" fill="#E7E9EA"/>
<path d="M9.98003 17.9472L8.65217 21.858C10.5801 22.4806 12.656 22.5234 14.605 21.9857L14.1056 17.9179C12.7755 18.3911 11.3162 18.4009 9.98003 17.9472ZM6.09858 9.85535L1.85886 9.2102C1.30233 11.2125 1.35866 13.3515 2.02785 15.326L6.1519 14.2933C5.59687 12.8716 5.57734 11.2876 6.09858 9.85535ZM21.6026 8.51171L17.8736 9.76973C18.473 11.3515 18.4114 13.1255 17.6881 14.6681L21.707 15.1728C22.4018 13.0075 22.3665 10.6597 21.6026 8.51171ZM8.55753 2.16529L9.32211 6.31713C10.8445 5.60062 12.5937 5.52852 14.1604 6.10082L15.3493 2.24265C13.1608 1.45704 10.7611 1.43151 8.55753 2.16529Z" fill="#E7E9EA"/>
<path d="M12.0011 16.5938C14.5384 16.5938 16.5953 14.5369 16.5953 11.9996C16.5953 9.46229 14.5384 7.4054 12.0011 7.4054C9.46382 7.4054 7.40692 9.46229 7.40692 11.9996C7.40692 14.5369 9.46382 16.5938 12.0011 16.5938Z" fill="#E7E9EA"/>
</g>
<defs>
<clipPath id="clip0_10_1033">
<rect width="24" height="24" fill="white"/>
</clipPath>
</defs>
</svg>
