<svg width="24" height="24" viewBox="0 0 24 24" fill="none" xmlns="http://www.w3.org/2000/svg">
<path d="M8 9.5C8 8.119 8.672 7 9.5 7C10.328 7 11 8.119 11 9.5C11 10.881 10.328 12 9.5 12C8.672 12 8 10.881 8 9.5ZM14.5 12C15.328 12 16 10.881 16 9.5C16 8.119 15.328 7 14.5 7C13.672 7 13 8.119 13 9.5C13 10.881 13.672 12 14.5 12ZM12 16C9.776 16 8.979 13.773 8.949 13.684L7.052 14.317C7.102 14.467 8.323 18.001 12.001 18.001C15.679 18.001 16.899 14.468 16.95 14.317L15.054 13.679C15.021 13.774 14.224 16.001 12.001 16.001L12 16ZM22.25 11.999C22.25 17.651 17.652 22.249 12 22.249C6.348 22.249 1.75 17.652 1.75 12C1.75 6.348 6.348 1.75 12 1.75C17.652 1.75 22.25 6.348 22.25 12V11.999ZM20.25 11.999C20.25 7.45 16.549 3.749 12 3.749C7.451 3.749 3.75 7.451 3.75 12C3.75 16.549 7.451 20.25 12 20.25C16.549 20.25 20.25 16.549 20.25 12V11.999Z" fill="#E7E9EA"/>
</svg>
