<svg width="24" height="24" viewBox="0 0 24 24" fill="none" xmlns="http://www.w3.org/2000/svg">
<path d="M3 5.5C3 4.119 4.12 3 5.5 3H18.5C19.88 3 21 4.119 21 5.5V18.5C21 19.881 19.88 21 18.5 21H5.5C4.12 21 3 19.881 3 18.5V5.5ZM5.5 5C5.22 5 5 5.224 5 5.5V18.5C5 18.776 5.22 19 5.5 19H18.5C18.78 19 19 18.776 19 18.5V5.5C19 5.224 18.78 5 18.5 5H5.5ZM18 10.711V9.25H14.26V14.75H15.7V13.031H17.4V11.57H15.7V10.711H18ZM11.79 9.25H13.23V14.75H11.79V9.25ZM8.72 10.625C9.06 10.625 9.49 10.797 9.74 11.055L10.77 10.195C10.26 9.594 9.49 9.25 8.72 9.25C7.19 9.25 6 10.453 6 12C6 13.547 7.19 14.75 8.72 14.75C9.57 14.75 10.26 14.406 10.77 13.805V11.656H8.38V12.688H9.4V13.203C9.23 13.289 8.98 13.375 8.72 13.375C7.96 13.375 7.36 12.773 7.36 12C7.36 11.312 7.96 10.625 8.72 10.625Z" fill="#E7E9EA"/>
</svg>
