<svg width="24" height="24" viewBox="0 0 24 24" fill="none" xmlns="http://www.w3.org/2000/svg">
<path d="M12 8.99998C9.79101 8.99998 8.00001 10.791 8.00001 13C8.00001 15.209 9.79101 17 12 17C14.209 17 16 15.209 16 13C16 10.791 14.209 8.99998 12 8.99998ZM12 15C10.895 15 10 14.105 10 13C10 11.895 10.895 11 12 11C13.105 11 14 11.895 14 13C14 14.105 13.105 15 12 15ZM12 1.69598L0.622009 8.80698L1.68201 10.503L3.00001 9.67898V19.5C3.00001 20.881 4.11901 22 5.50001 22H18.5C19.881 22 21 20.881 21 19.5V9.67898L22.318 10.503L23.378 8.80698L12 1.69598ZM19 19.5C19 19.776 18.776 20 18.5 20H5.50001C5.22401 20 5.00001 19.776 5.00001 19.5V8.42898L12 4.05398L19 8.42898V19.5Z" fill="#E7E9EA"/>
</svg>
