<svg width="24" height="24" viewBox="0 0 24 24" fill="none" xmlns="http://www.w3.org/2000/svg">
<path d="M16.697 5.50003C15.475 5.44003 14.018 6.01003 12.807 7.66003L12.002 8.75003L11.196 7.66003C9.984 6.01003 8.526 5.44003 7.304 5.50003C6.061 5.57003 4.955 6.28003 4.394 7.41003C3.842 8.53003 3.761 10.19 4.873 12.23C5.947 14.2 8.13 16.5 12.002 18.84C15.872 16.5 18.054 14.2 19.128 12.23C20.239 10.19 20.158 8.53003 19.605 7.41003C19.044 6.28003 17.939 5.57003 16.697 5.50003ZM20.884 13.19C19.533 15.67 16.883 18.31 12.505 20.86L12.002 21.16L11.498 20.86C7.119 18.31 4.469 15.67 3.116 13.19C1.756 10.69 1.706 8.33003 2.602 6.52003C3.489 4.73003 5.249 3.61003 7.203 3.51003C8.854 3.42003 10.571 4.07003 12.001 5.52003C13.43 4.07003 15.147 3.42003 16.797 3.51003C18.751 3.61003 20.511 4.73003 21.398 6.52003C22.294 8.33003 22.244 10.69 20.884 13.19Z" fill="#E7E9EA"/>
</svg>
