<svg width="24" height="24" viewBox="0 0 24 24" fill="none" xmlns="http://www.w3.org/2000/svg">
<path d="M12 7C10.07 7 8.5 8.57 8.5 10.5C8.5 12.43 10.07 14 12 14C13.93 14 15.5 12.43 15.5 10.5C15.5 8.57 13.93 7 12 7ZM12 12C11.173 12 10.5 11.327 10.5 10.5C10.5 9.673 11.173 9 12 9C12.827 9 13.5 9.673 13.5 10.5C13.5 11.327 12.827 12 12 12ZM12 2C7.313 2 3.5 5.813 3.5 10.5C3.5 16.467 11.121 21.616 11.445 21.832L12 22.202L12.555 21.832C12.879 21.616 20.5 16.467 20.5 10.5C20.5 5.813 16.687 2 12 2ZM12 19.77C10.335 18.529 5.5 14.574 5.5 10.5C5.5 6.916 8.416 4 12 4C15.584 4 18.5 6.916 18.5 10.5C18.5 14.573 13.665 18.528 12 19.77Z" fill="#E7E9EA"/>
</svg>
