<svg width="24" height="24" viewBox="0 0 24 24" fill="none" xmlns="http://www.w3.org/2000/svg">
<path d="M3 5.5C3 4.119 4.119 3 5.5 3H18.5C19.881 3 21 4.119 21 5.5V18.5C21 19.881 19.881 21 18.5 21H5.5C4.119 21 3 19.881 3 18.5V5.5ZM5.5 5C5.224 5 5 5.224 5 5.5V14.586L8 11.586L11 14.586L16 9.586L19 12.586V5.5C19 5.224 18.776 5 18.5 5H5.5ZM19 15.414L16 12.414L11 17.414L8 14.414L5 17.414V18.5C5 18.776 5.224 19 5.5 19H18.5C18.776 19 19 18.776 19 18.5V15.414ZM9.75 7C8.784 7 8 7.784 8 8.75C8 9.716 8.784 10.5 9.75 10.5C10.716 10.5 11.5 9.716 11.5 8.75C11.5 7.784 10.716 7 9.75 7Z" fill="#E7E9EA"/>
</svg>
