<svg width="24" height="24" viewBox="0 0 24 24" fill="none" xmlns="http://www.w3.org/2000/svg">
<path d="M1.99799 5.5C1.99799 4.119 3.11699 3 4.49799 3H19.498C20.879 3 21.998 4.119 21.998 5.5V18.5C21.998 19.881 20.879 21 19.498 21H4.49799C3.11699 21 1.99799 19.881 1.99799 18.5V5.5ZM4.49799 5C4.22199 5 3.99799 5.224 3.99799 5.5V8.264L11.998 11.902L19.998 8.266V5.5C19.998 5.224 19.774 5 19.498 5H4.49799ZM19.998 10.463L11.998 14.099L3.99799 10.461V18.5C3.99799 18.776 4.22199 19 4.49799 19H19.498C19.774 19 19.998 18.776 19.998 18.5V10.463Z" fill="#E7E9EA"/>
</svg>
