<svg width="24" height="24" viewBox="0 0 24 24" fill="none" xmlns="http://www.w3.org/2000/svg">
<path d="M19.993 9.042C19.48 5.017 16.054 2 11.996 2C7.93803 2 4.50603 5.021 3.99703 9.051L2.86603 18H7.10003C7.56303 20.282 9.58103 22 12 22C14.419 22 16.437 20.282 16.9 18H21.136L19.993 9.042ZM12 20C10.694 20 9.58303 19.165 9.17103 18H14.829C14.417 19.165 13.306 20 12 20ZM5.13403 16L5.98103 9.302C6.36403 6.272 8.94103 4 11.996 4C15.051 4 17.623 6.268 18.009 9.295L18.864 16H5.13403Z" fill="#E7E9EA"/>
</svg>
