<svg width="24" height="24" viewBox="0 0 24 24" fill="none" xmlns="http://www.w3.org/2000/svg">
<path d="M6 5C4.9 5 4 5.895 4 7C4 8.105 4.9 9 6 9C7.1 9 8 8.105 8 7C8 5.895 7.1 5 6 5ZM2 7C2 4.791 3.79 3 6 3C8.21 3 10 4.791 10 7C10 9.209 8.21 11 6 11C3.79 11 2 9.209 2 7ZM22 8H12V6H22V8ZM6 15C4.9 15 4 15.895 4 17C4 18.105 4.9 19 6 19C7.1 19 8 18.105 8 17C8 15.895 7.1 15 6 15ZM2 17C2 14.791 3.79 13 6 13C8.21 13 10 14.791 10 17C10 19.209 8.21 21 6 21C3.79 21 2 19.209 2 17ZM22 18H12V16H22V18ZM7 7C7 7.552 6.55 8 6 8C5.45 8 5 7.552 5 7C5 6.448 5.45 6 6 6C6.55 6 7 6.448 7 7Z" fill="#E7E9EA"/>
</svg>
