<svg width="24" height="24" viewBox="0 0 24 24" fill="none" xmlns="http://www.w3.org/2000/svg">
<path d="M16.5 3H2V21H17C20.038 21 22.5 18.54 22.5 15.5C22.5 14.1 21.976 12.82 21.115 11.85C21.035 11.76 21.026 11.63 21.092 11.53C21.666 10.66 22 9.62 22 8.5C22 5.46 19.538 3 16.5 3ZM15.704 8.99C16.161 8.94 16.596 8.82 17 8.64C16.698 9.09 16.316 9.48 15.875 9.79C15.879 9.89 15.881 9.98 15.881 10.08C15.881 13.02 13.612 16.4 9.46 16.4C8.186 16.4 7 16.03 6.001 15.4C6.178 15.42 6.358 15.43 6.54 15.43C7.597 15.43 8.57 15.08 9.343 14.48C8.355 14.46 7.522 13.82 7.234 12.94C7.372 12.97 7.514 12.98 7.659 12.98C7.865 12.98 8.064 12.95 8.254 12.9C7.221 12.7 6.443 11.8 6.443 10.72V10.69C6.748 10.86 7.095 10.96 7.466 10.97C6.86 10.57 6.462 9.89 6.462 9.12C6.462 8.72 6.573 8.34 6.767 8.01C7.88 9.35 9.542 10.23 11.419 10.33C11.381 10.16 11.361 10 11.361 9.82C11.361 8.59 12.371 7.6 13.617 7.6C14.266 7.6 14.852 7.87 15.264 8.3C15.778 8.2 16.261 8.02 16.697 7.76C16.529 8.28 16.17 8.72 15.704 8.99Z" fill="#E7E9EA"/>
</svg>
